<svg width="32" height="33" viewBox="0 0 32 33" fill="none" xmlns="http://www.w3.org/2000/svg">
<path d="M14.6267 3.16675H11.96C5.29338 3.16675 2.62671 5.83341 2.62671 12.5001V20.5001C2.62671 27.1667 5.29338 29.8334 11.96 29.8334H19.96C26.6267 29.8334 29.2934 27.1667 29.2934 20.5001V17.8334" stroke="white" stroke-width="1.5" stroke-linecap="round" stroke-linejoin="round"/>
<path d="M29.1733 5.24655C27.5333 9.33989 23.4133 14.9132 19.9733 17.6732L17.8667 19.3532C17.6 19.5532 17.3333 19.7132 17.0267 19.8332C17.0267 19.6332 17.0133 19.4332 16.9867 19.2199C16.8667 18.3266 16.4667 17.4866 15.7467 16.7799C15.0133 16.0466 14.1333 15.6332 13.2267 15.5132C13.0133 15.4999 12.8 15.4866 12.5867 15.4999C12.7067 15.1666 12.88 14.8599 13.1067 14.6066L14.7867 12.4999C17.5467 9.05989 23.1333 4.91322 27.2133 3.27322C27.84 3.03322 28.4533 3.21989 28.84 3.60655C29.24 4.00655 29.4267 4.61989 29.1733 5.24655Z" stroke="white" stroke-width="1.5" stroke-linecap="round" stroke-linejoin="round"/>
<path d="M21.0934 16.4733C21.0934 13.6866 18.84 11.4199 16.04 11.4199M17.04 19.8199C17.04 20.9933 16.5867 22.1133 15.7467 22.9666C15.0934 23.6199 14.2134 24.0733 13.16 24.2066L10.5334 24.4866C10.1959 24.5226 9.85473 24.4825 9.53491 24.369C9.21509 24.2556 8.92481 24.0718 8.6855 23.8312C8.44619 23.5907 8.26396 23.2994 8.15224 22.979C8.04052 22.6586 8.00217 22.3171 8.04002 21.9799L8.32002 19.3533C8.57336 17.0199 10.52 15.5266 12.6 15.4866C12.8134 15.4733 13.0267 15.4866 13.24 15.4999C14.1467 15.6199 15.0267 16.0333 15.76 16.7666C16.48 17.4866 16.88 18.3133 17 19.2066C17.0267 19.4199 17.04 19.6333 17.04 19.8199Z" stroke="white" stroke-width="1.5" stroke-linecap="round" stroke-linejoin="round"/>
</svg>
