<svg width="27" height="27" viewBox="0 0 27 27" fill="none" xmlns="http://www.w3.org/2000/svg">
<g clip-path="url(#clip0_242_874)">
<path d="M17.9999 17.5725C18.3374 21.915 24.7499 18.9338 24.2549 20.43C21.4199 28.845 10.0349 26.8313 5.12994 21.7463C2.8713 19.4388 1.61393 16.3335 1.63078 13.1047C1.64763 9.87576 2.93734 6.78382 5.21994 4.50002C9.97869 -0.213727 17.9999 -0.562477 22.4212 4.50002C31.0049 14.4675 17.7299 13.7025 17.9999 17.5725Z" stroke="#E9ECEF" stroke-width="1.6875" stroke-linecap="round" stroke-linejoin="round"/>
<path d="M8.08866 16.6839C9.03307 16.6839 9.79866 15.9183 9.79866 14.9739C9.79866 14.0295 9.03307 13.2639 8.08866 13.2639C7.14426 13.2639 6.37866 14.0295 6.37866 14.9739C6.37866 15.9183 7.14426 16.6839 8.08866 16.6839Z" stroke="#E9ECEF" stroke-width="1.6875" stroke-linecap="round" stroke-linejoin="round"/>
<path d="M12.3186 22.1175C13.263 22.1175 14.0286 21.3519 14.0286 20.4075C14.0286 19.4631 13.263 18.6975 12.3186 18.6975C11.3742 18.6975 10.6086 19.4631 10.6086 20.4075C10.6086 21.3519 11.3742 22.1175 12.3186 22.1175Z" stroke="#E9ECEF" stroke-width="1.6875" stroke-linecap="round" stroke-linejoin="round"/>
<path d="M16.4139 8.35872C17.3583 8.35872 18.1239 7.59313 18.1239 6.64872C18.1239 5.70431 17.3583 4.93872 16.4139 4.93872C15.4695 4.93872 14.7039 5.70431 14.7039 6.64872C14.7039 7.59313 15.4695 8.35872 16.4139 8.35872Z" stroke="#E9ECEF" stroke-width="1.6875" stroke-linecap="round" stroke-linejoin="round"/>
<path d="M9.15727 10.17C10.1017 10.17 10.8673 9.40441 10.8673 8.46C10.8673 7.51559 10.1017 6.75 9.15727 6.75C8.21286 6.75 7.44727 7.51559 7.44727 8.46C7.44727 9.40441 8.21286 10.17 9.15727 10.17Z" stroke="#E9ECEF" stroke-width="1.6875" stroke-linecap="round" stroke-linejoin="round"/>
</g>
<defs>
<clipPath id="clip0_242_874">
<rect width="27" height="27" fill="white"/>
</clipPath>
</defs>
</svg>
