<svg width="30" height="30" viewBox="0 0 30 30" fill="none" xmlns="http://www.w3.org/2000/svg">
<g clip-path="url(#clip0_136_1372)">
<path fill-rule="evenodd" clip-rule="evenodd" d="M15 27.5375C8.0875 27.5375 2.4625 21.9125 2.4625 15C2.4625 8.0875 8.0875 2.4625 15 2.4625C21.9125 2.4625 27.5375 8.0875 27.5375 15C27.5375 21.9125 21.9125 27.5375 15 27.5375ZM15 0C6.715 0 0 6.71625 0 15C0 23.285 6.715 30 15 30C23.285 30 30 23.285 30 15C30 6.71625 23.285 0 15 0ZM22.68 16.3337L20.6875 15L22.6813 13.6662V16.3337H22.68ZM15.7975 21.9888V18.27L19.2525 15.9587L22.0425 17.825L15.7975 21.9888ZM15 16.8862L12.1812 15L15 13.115L17.8188 15L15 16.8875V16.8862ZM14.2025 21.9888L7.9575 17.825L10.7475 15.9587L14.2025 18.2712V21.9888ZM7.32 13.6662L9.3125 15L7.31875 16.3337L7.32 13.6662ZM14.2025 8.0125V11.73L10.7475 14.0425L7.9575 12.175L14.2025 8.0125ZM15.7975 8.0125L22.0425 12.175L19.2525 14.0413L15.7975 11.7288V8.0125ZM24.2675 12.07L24.2612 12.0362C24.2577 12.0136 24.2531 11.991 24.2475 11.9688L24.235 11.9312C24.2187 11.8791 24.1969 11.8288 24.17 11.7812L24.1462 11.7438C24.1178 11.698 24.0843 11.6557 24.0462 11.6175L24.0138 11.5863C23.9992 11.5733 23.9841 11.5608 23.9688 11.5487L23.9325 11.5212L23.92 11.5112L15.4425 5.86C15.3115 5.77245 15.1575 5.72572 15 5.72572C14.8425 5.72572 14.6885 5.77245 14.5575 5.86L6.08 11.51L6.0675 11.5212L6.03 11.5487C6.01492 11.5607 6.00033 11.5732 5.98625 11.5863C5.97375 11.5963 5.965 11.6062 5.95375 11.6175C5.90468 11.6652 5.86298 11.72 5.83 11.78C5.82053 11.7976 5.81177 11.8155 5.80375 11.8337L5.78625 11.8713C5.7775 11.8912 5.77125 11.9112 5.765 11.93L5.7525 11.9688C5.7475 11.9913 5.7425 12.0138 5.74 12.0362L5.7325 12.07C5.72765 12.1044 5.72515 12.139 5.725 12.1737V17.8263C5.72497 17.861 5.72748 17.8956 5.7325 17.93L5.73875 17.965L5.7525 18.0312L5.765 18.07C5.77125 18.09 5.7775 18.1087 5.78625 18.1287L5.80375 18.1663C5.82764 18.2148 5.85566 18.2612 5.8875 18.305C5.90703 18.3329 5.92922 18.3589 5.95375 18.3825L5.98625 18.4137C6.01164 18.4375 6.0388 18.4592 6.0675 18.4788L6.08 18.4888L14.5575 24.1413C14.6885 24.2288 14.8425 24.2755 15 24.2755C15.1575 24.2755 15.3115 24.2288 15.4425 24.1413L23.92 18.4888L23.9325 18.4788C23.9608 18.4587 23.988 18.437 24.0138 18.4137C24.0263 18.4037 24.035 18.3938 24.0462 18.3825C24.0601 18.3688 24.0735 18.3547 24.0862 18.34L24.1125 18.305C24.1244 18.2892 24.1357 18.273 24.1462 18.2562L24.17 18.22C24.1795 18.2029 24.1882 18.1854 24.1963 18.1675L24.2138 18.1287C24.2219 18.1096 24.229 18.09 24.235 18.07L24.2475 18.0325C24.2526 18.0102 24.2568 17.9877 24.26 17.965L24.2675 17.93C24.2722 17.8956 24.2747 17.861 24.275 17.8263V12.1737C24.2747 12.139 24.2722 12.1044 24.2675 12.07Z" fill="white"/>
</g>
<defs>
<clipPath id="clip0_136_1372">
<rect width="30" height="30" fill="white"/>
</clipPath>
</defs>
</svg>
