<svg width="33" height="32" viewBox="0 0 33 32" fill="none" xmlns="http://www.w3.org/2000/svg">
<path d="M25.1666 6.38672C21.6999 12.4534 15.0199 15.9334 8.05992 15.3067L3.83325 14.9201M7.83325 25.8267C11.2999 19.7601 17.9799 16.2801 24.9399 16.9067L29.1666 17.2934" stroke="white" stroke-width="1.5" stroke-miterlimit="10" stroke-linecap="round" stroke-linejoin="round"/>
<path d="M16.5001 29.3332C23.8641 29.3332 29.8334 23.3638 29.8334 15.9998C29.8334 8.63584 23.8641 2.6665 16.5001 2.6665C9.13608 2.6665 3.16675 8.63584 3.16675 15.9998C3.16675 23.3638 9.13608 29.3332 16.5001 29.3332Z" stroke="white" stroke-width="1.5" stroke-miterlimit="10" stroke-linecap="round" stroke-linejoin="round"/>
<path d="M10.6733 4L14.9133 9.26667C17.7533 12.7867 19.7667 16.88 20.8333 21.2667L22.4467 27.92" stroke="white" stroke-width="1.5" stroke-miterlimit="10" stroke-linecap="round" stroke-linejoin="round"/>
</svg>
