<svg width="31" height="30" viewBox="0 0 31 30" fill="none" xmlns="http://www.w3.org/2000/svg">
<g clip-path="url(#clip0_136_1379)">
<path fill-rule="evenodd" clip-rule="evenodd" d="M15.5 2.5C8.59625 2.5 3 8.09625 3 15C3 21.9037 8.59625 27.5 15.5 27.5C22.4037 27.5 28 21.9037 28 15C28 8.09625 22.4037 2.5 15.5 2.5ZM0.5 15C0.5 6.71562 7.21562 0 15.5 0C23.7844 0 30.5 6.71562 30.5 15C30.5 23.2844 23.7844 30 15.5 30C7.21562 30 0.5 23.2844 0.5 15Z" fill="white"/>
<path fill-rule="evenodd" clip-rule="evenodd" d="M12.4894 28.4202C12.3687 28.2639 12.3687 26.8733 12.4894 24.2489C11.1944 24.2939 10.3769 24.2039 10.035 23.9796C9.5231 23.6427 9.00998 22.6046 8.5556 21.8727C8.1006 21.1414 7.09123 21.0252 6.68373 20.8614C6.27623 20.6983 6.17373 20.0314 7.80685 20.5352C9.43998 21.0396 9.51935 22.4133 10.035 22.7339C10.5506 23.0552 11.7825 22.9152 12.3406 22.6577C12.8987 22.4002 12.8575 21.4427 12.9575 21.0633C13.0831 20.7089 12.6394 20.6302 12.63 20.6277C12.0844 20.6277 9.22123 20.0046 8.43435 17.2321C7.6481 14.4589 8.66123 12.6464 9.20185 11.8671C9.56185 11.3483 9.52998 10.2408 9.10623 8.54644C10.6456 8.34956 11.8344 8.83394 12.6706 10.0002C12.6719 10.0064 13.7681 9.34831 15.5 9.34831C17.2325 9.34831 17.8469 9.88456 18.3212 10.0002C18.7962 10.1158 19.175 7.95894 22.1044 8.54644C21.4925 9.74831 20.9806 11.2502 21.3712 11.8677C21.7625 12.4846 23.2962 14.4471 22.3544 17.2321C21.7256 19.0883 20.4906 20.2202 18.6487 20.6277C18.4381 20.6952 18.3325 20.8039 18.3325 20.9539C18.3325 21.1789 18.6175 21.2033 19.0287 22.2577C19.3037 22.9602 19.3231 24.9677 19.0887 28.2796C18.4944 28.4308 18.0319 28.5327 17.7012 28.5846C17.1156 28.6764 16.4794 28.7283 15.8544 28.7477C15.2294 28.7677 15.0125 28.7658 14.1481 28.6852C13.5898 28.6345 13.0356 28.546 12.4894 28.4202Z" fill="white"/>
</g>
<defs>
<clipPath id="clip0_136_1379">
<rect width="30" height="30" fill="white" transform="translate(0.5)"/>
</clipPath>
</defs>
</svg>
