<svg width="35" height="35" viewBox="0 0 35 35" fill="none" xmlns="http://www.w3.org/2000/svg">
<path d="M29.1667 26.2502H26.2501V13.4897L17.5001 18.9585L8.75008 13.4897V26.2502H5.83341V8.75016H7.58341L17.5001 14.9481L27.4167 8.75016H29.1667M29.1667 5.8335H5.83341C4.21466 5.8335 2.91675 7.13141 2.91675 8.75016V26.2502C2.91675 27.0237 3.22404 27.7656 3.77102 28.3126C4.318 28.8595 5.05987 29.1668 5.83341 29.1668H29.1667C29.9403 29.1668 30.6822 28.8595 31.2291 28.3126C31.7761 27.7656 32.0834 27.0237 32.0834 26.2502V8.75016C32.0834 7.97661 31.7761 7.23475 31.2291 6.68777C30.6822 6.14079 29.9403 5.8335 29.1667 5.8335Z" fill="white"/>
</svg>
