<svg width="16" height="17" viewBox="0 0 16 17" fill="none" xmlns="http://www.w3.org/2000/svg">
<path d="M7.3 15.8C7.11667 15.6167 7.02067 15.3833 7.012 15.1C7.00334 14.8167 7.091 14.5833 7.275 14.4L12.175 9.49999H1C0.71667 9.49999 0.479004 9.40399 0.287004 9.21199C0.0950036 9.01999 -0.000663206 8.78265 3.4602e-06 8.49999C3.4602e-06 8.21665 0.0960036 7.97899 0.288004 7.78699C0.480004 7.59499 0.717337 7.49932 1 7.49999H12.175L7.275 2.59999C7.09167 2.41665 7.004 2.18332 7.012 1.89999C7.02 1.61665 7.116 1.38332 7.3 1.19999C7.48334 1.01665 7.71667 0.924988 8 0.924988C8.28334 0.924988 8.51667 1.01665 8.7 1.19999L15.3 7.79999C15.4 7.88332 15.471 7.98765 15.513 8.11299C15.555 8.23832 15.5757 8.36732 15.575 8.49999C15.575 8.63332 15.5543 8.75832 15.513 8.87499C15.4717 8.99165 15.4007 9.09999 15.3 9.19999L8.7 15.8C8.51667 15.9833 8.28334 16.075 8 16.075C7.71667 16.075 7.48334 15.9833 7.3 15.8Z" fill="#0F161D"/>
</svg>
