<svg width="24" height="25" viewBox="0 0 24 25" fill="none" xmlns="http://www.w3.org/2000/svg">
<path d="M10.97 2.5H8.96997C3.96997 2.5 1.96997 4.5 1.96997 9.5V15.5C1.96997 20.5 3.96997 22.5 8.96997 22.5H14.97C19.97 22.5 21.97 20.5 21.97 15.5V13.5" stroke="white" stroke-linecap="round" stroke-linejoin="round"/>
<path d="M21.8799 4.05998C20.6499 7.12998 17.5599 11.31 14.9799 13.38L13.3999 14.64C13.1999 14.79 12.9999 14.91 12.7699 15C12.7699 14.85 12.7599 14.7 12.7399 14.54C12.6499 13.87 12.3499 13.24 11.8099 12.71C11.2599 12.16 10.5999 11.85 9.91994 11.76C9.75994 11.75 9.59994 11.74 9.43994 11.75C9.52994 11.5 9.65994 11.27 9.82994 11.08L11.0899 9.49998C13.1599 6.91998 17.3499 3.80998 20.4099 2.57998C20.8799 2.39998 21.3399 2.53998 21.6299 2.82998C21.9299 3.12998 22.0699 3.58998 21.8799 4.05998Z" stroke="white" stroke-linecap="round" stroke-linejoin="round"/>
<path d="M15.8199 12.4799C15.8199 10.3899 14.1299 8.68994 12.0299 8.68994M12.7799 14.9899C12.7799 15.8699 12.4399 16.7099 11.8099 17.3499C11.3199 17.8399 10.6599 18.1799 9.8699 18.2799L7.8999 18.4899C7.64683 18.517 7.39092 18.4869 7.15106 18.4018C6.91119 18.3167 6.69349 18.1789 6.514 17.9984C6.33452 17.818 6.19785 17.5996 6.11406 17.3592C6.03027 17.1189 6.00151 16.8629 6.0299 16.6099L6.2399 14.6399C6.4299 12.8899 7.8899 11.7699 9.4499 11.7399C9.6099 11.7299 9.7699 11.7399 9.9299 11.7499C10.6099 11.8399 11.2699 12.1499 11.8199 12.6999C12.3599 13.2399 12.6599 13.8599 12.7499 14.5299C12.7699 14.6899 12.7799 14.8499 12.7799 14.9899Z" stroke="white" stroke-linecap="round" stroke-linejoin="round"/>
</svg>
