<svg width="25" height="25" viewBox="0 0 25 25" fill="none" xmlns="http://www.w3.org/2000/svg">
<g clip-path="url(#clip0_242_1773)">
<path d="M16.3332 16.12C16.6332 19.98 22.3332 17.33 21.8932 18.66C19.3732 26.14 9.25323 24.35 4.89323 19.83C2.88555 17.7789 1.76789 15.0187 1.78286 12.1486C1.79784 9.27846 2.94425 6.53007 4.97323 4.50002C9.20323 0.31002 16.3332 2.0504e-05 20.2632 4.50002C27.8932 13.36 16.0932 12.68 16.3332 16.12Z" stroke="#E9ECEF" stroke-linecap="round" stroke-linejoin="round"/>
<path d="M7.52317 15.33C8.36265 15.33 9.04317 14.6495 9.04317 13.81C9.04317 12.9706 8.36265 12.29 7.52317 12.29C6.6837 12.29 6.00317 12.9706 6.00317 13.81C6.00317 14.6495 6.6837 15.33 7.52317 15.33Z" stroke="#E9ECEF" stroke-linecap="round" stroke-linejoin="round"/>
<path d="M11.2832 20.16C12.1227 20.16 12.8032 19.4795 12.8032 18.64C12.8032 17.8005 12.1227 17.12 11.2832 17.12C10.4437 17.12 9.76318 17.8005 9.76318 18.64C9.76318 19.4795 10.4437 20.16 11.2832 20.16Z" stroke="#E9ECEF" stroke-linecap="round" stroke-linejoin="round"/>
<path d="M14.9233 7.93001C15.7628 7.93001 16.4433 7.24949 16.4433 6.41001C16.4433 5.57054 15.7628 4.89001 14.9233 4.89001C14.0838 4.89001 13.4033 5.57054 13.4033 6.41001C13.4033 7.24949 14.0838 7.93001 14.9233 7.93001Z" stroke="#E9ECEF" stroke-linecap="round" stroke-linejoin="round"/>
<path d="M8.47313 9.54C9.3126 9.54 9.99312 8.85947 9.99312 8.02C9.99312 7.18053 9.3126 6.5 8.47313 6.5C7.63365 6.5 6.95312 7.18053 6.95312 8.02C6.95312 8.85947 7.63365 9.54 8.47313 9.54Z" stroke="#E9ECEF" stroke-linecap="round" stroke-linejoin="round"/>
</g>
<defs>
<clipPath id="clip0_242_1773">
<rect width="24" height="24" fill="white" transform="translate(0.333252 0.5)"/>
</clipPath>
</defs>
</svg>
