<svg width="103" height="28" viewBox="0 0 103 28" fill="none" xmlns="http://www.w3.org/2000/svg">
<path d="M10.5049 2.84832C12.3194 2.83362 14.1196 3.17103 15.8059 3.8419V0.848473C14.0126 0.254126 12.1317 -0.0317873 10.243 0.00287366C3.43968 0.00287366 0.0380249 2.91315 0.0380249 8.73369C0.0380249 14.8868 3.38195 17.9634 10.0698 17.9634C12.025 18.0222 13.9731 17.7005 15.8059 17.0163V12.3655H12.2958V14.8009C11.5864 14.9853 10.8576 15.0846 10.1247 15.0968C5.83041 15.0968 3.68326 12.9716 3.68326 8.72101C3.68326 4.80588 5.95713 2.84832 10.5049 2.84832Z" fill="white"/>
<path d="M32.5241 0.125488H28.7648L20.7394 17.8366H24.3466L30.5642 3.50789L33.5463 10.1501H29.7448L28.5367 12.9997H34.8303L36.993 17.8281H40.7692L32.5241 0.125488Z" fill="white"/>
<path d="M49.8421 14.9911V0.125488H46.332V17.8366H57.3691V14.9911H49.8421Z" fill="white"/>
<path d="M74.1 0.125488H70.3239L62.2984 17.8366H65.893L72.1275 3.50789L75.1095 10.1501H71.308L70.1042 12.9997H76.3978L78.5562 17.8281H82.3324L74.1 0.125488Z" fill="white"/>
<path d="M97.699 2.84832C99.5135 2.83362 101.314 3.17103 103 3.8419V0.848474C101.205 0.253733 99.323 -0.0321842 97.4329 0.00287386C90.6324 0.00287386 87.2321 2.91315 87.2321 8.73369C87.2321 14.8868 90.6324 17.9634 97.4329 17.9634C99.3246 17.9924 101.207 17.6979 103 17.0924V14.1328C101.313 14.8024 99.5133 15.1384 97.699 15.1222C93.1484 15.1222 90.8732 12.9969 90.8732 8.74638C90.8732 4.81434 93.1484 2.84832 97.699 2.84832Z" fill="white"/>
<path d="M2.06127 26.6139C3.70014 26.6139 4.51536 25.7683 4.51536 24.0771C4.51536 22.5719 3.70014 21.8151 2.06127 21.8151H0.422391V26.635L2.06127 26.6139ZM0 26.9606V21.4642H2.11195C4.03806 21.4642 5.00111 22.3338 5.00111 24.0729C5.00111 26.0093 4.02398 26.9775 2.06972 26.9775L0 26.9606ZM24.6381 21.4642V21.8109H21.1956V24.0095H24.4987V24.3562H21.1956V26.6308H24.693V26.9775H20.7647V21.4811L24.6381 21.4642ZM40.5706 26.7703V26.3475C41.2315 26.5574 41.9217 26.6601 42.615 26.652C43.8484 26.652 44.4651 26.2151 44.4651 25.3413C44.4651 24.6986 44.0638 24.3773 43.2613 24.3773H42.049C40.9508 24.3773 40.4017 23.915 40.4017 22.9905C40.4017 21.9391 41.207 21.4121 42.8178 21.4092C43.464 21.4092 44.1079 21.4873 44.7354 21.6418V22.0265C44.112 21.8471 43.4665 21.756 42.8178 21.7559C41.4957 21.7559 40.8367 22.1787 40.8367 22.9905C40.8367 23.6585 41.2591 23.9925 42.049 23.9925H43.2613C44.3553 23.9925 44.9001 24.4449 44.9001 25.3413C44.9001 26.449 44.1384 27.0029 42.615 27.0029C41.9267 27.0083 41.2402 26.9302 40.5706 26.7703ZM61.3523 21.4473V26.9437H60.9299V21.4473H61.3523ZM82.117 26.745C81.608 26.9167 81.0744 27.0039 80.5373 27.0029C78.4309 27.0029 77.3764 26.0445 77.3735 24.1278C77.3735 22.3183 78.4056 21.4121 80.4697 21.4092C81.0269 21.4097 81.5814 21.488 82.117 21.6418V21.9885C81.608 21.8384 81.0805 21.7601 80.5499 21.7559C78.7224 21.7559 77.8086 22.5466 77.8086 24.1278C77.8086 25.819 78.697 26.6646 80.4739 26.6646C80.8834 26.6589 81.2907 26.6021 81.6862 26.4955V24.4576H82.1085L82.117 26.745ZM98.0791 26.9606V21.4642H98.6367L102.578 26.2926V21.4473H102.97V26.9437H102.641L98.4931 21.8701V26.9437L98.0791 26.9606Z" fill="white"/>
</svg>
